<svg xmlns="http://www.w3.org/2000/svg" xmlns:xlink="http://www.w3.org/1999/xlink" width="166.831" height="114.075" viewBox="0 0 125.123 85.556">
  <defs>
    <symbol overflow="visible" id="a">
      <path d="M4.203 5.328L.656 9.703c-.078.094-.094.11-.094.156 0 .11.094.11.282.11h8.25l.86-2.49h-.25c-.25.75-.907 1.36-1.767 1.64-.156.06-.843.3-2.312.3H1.39l3.47-4.28c.062-.1.077-.11.077-.16s0-.05-.062-.14L1.64.4h3.94c1.14 0 3.438.063 4.125 1.922h.25L9.093 0H.843c-.28 0-.28.016-.28.313z"/>
    </symbol>
    <symbol overflow="visible" id="b">
      <path d="M.844-.438C.828-.344.78-.17.78-.156c0 .156.126.218.236.218.125 0 .234-.078.28-.14.032-.063.08-.297.126-.438.03-.125.11-.453.14-.625.047-.16.094-.32.125-.47.08-.28.094-.35.297-.63.188-.28.516-.64 1.047-.64.4 0 .41.36.41.48 0 .42-.29 1.18-.4 1.48-.07.2-.11.26-.11.37 0 .37.3.59.66.59.71 0 1-.96 1-1.07 0-.096-.07-.096-.11-.096-.09 0-.09.05-.12.127-.15.565-.47.846-.73.846-.15 0-.18-.095-.18-.25s.048-.25.173-.56c.076-.22.36-.956.36-1.346 0-.67-.534-.794-.91-.794-.577 0-.97.36-1.17.64-.05-.484-.454-.64-.75-.64s-.454.22-.55.375c-.154.267-.25.658-.25.705 0 .08.096.08.127.08.09 0 .09-.016.14-.2.11-.41.25-.75.51-.75.188 0 .235.153.235.34 0 .127-.064.39-.126.58-.05.19-.11.47-.144.627z"/>
    </symbol>
    <symbol overflow="visible" id="c">
      <path d="M2.328-4.438c0-.187 0-.187-.203-.187-.453.438-1.078.438-1.36.438v.25c.157 0 .626 0 1-.188v3.547c0 .234 0 .328-.687.328H.812V0c.125 0 .985-.03 1.235-.03.22 0 1.094.03 1.25.03v-.25H3.03c-.702 0-.702-.094-.702-.328z"/>
    </symbol>
    <symbol overflow="visible" id="j">
      <path d="M3.594-2.22c0-.764-.094-1.327-.406-1.81-.22-.314-.657-.595-1.204-.595C.36-4.625.36-2.72.36-2.22c0 .5 0 2.36 1.624 2.36 1.61 0 1.61-1.86 1.61-2.36zM1.984-.06c-.328 0-.75-.188-.89-.75C1-1.22 1-1.797 1-2.313c0-.516 0-1.047.094-1.422.156-.547.593-.704.89-.704.375 0 .735.24.86.64.11.38.125.88.125 1.49 0 .52 0 1.03-.1 1.47-.14.64-.61.78-.89.78z"/>
    </symbol>
    <symbol overflow="visible" id="m">
      <path d="M3.516-1.266H3.28c-.014.157-.092.563-.186.625-.047.04-.578.04-.688.04h-1.28c.733-.64.983-.85 1.39-1.17.515-.41 1-.85 1-1.5 0-.85-.735-1.36-1.625-1.36-.86 0-1.45.61-1.45 1.25 0 .34.3.39.38.39.16 0 .36-.13.36-.38 0-.13-.04-.38-.4-.38.22-.49.69-.64 1.02-.64.71 0 1.07.54 1.07 1.11 0 .61-.44 1.08-.654 1.33L.52-.27c-.08.064-.08.08-.08.267h2.876z"/>
    </symbol>
    <symbol overflow="visible" id="d">
      <path d="M2.078-1.938c.22.047 1.03.204 1.03.922 0 .5-.342.907-1.124.907C1.14-.11.78-.67.594-1.53c-.03-.126-.03-.157-.14-.157-.126 0-.126.062-.126.234v1.328c0 .172 0 .234.11.234C.483.11.5.09.688-.1.703-.11.703-.128.89-.312c.438.406.89.42 1.094.42 1.14 0 1.61-.67 1.61-1.39 0-.515-.297-.827-.422-.937-.328-.32-.72-.4-1.14-.48-.563-.11-1.22-.23-1.22-.81 0-.36.25-.76 1.11-.76 1.094 0 1.156.91 1.172 1.21 0 .1.094.1.11.1.14 0 .14-.044.14-.232v-1.02c0-.157 0-.235-.11-.235-.046 0-.078 0-.203.124-.03.033-.12.126-.17.158-.37-.28-.78-.28-.93-.28-1.22 0-1.6.67-1.6 1.236 0 .344.16.626.42.844.33.25.61.31 1.33.45z"/>
    </symbol>
    <symbol overflow="visible" id="e">
      <path d="M1.766-4.406l-1.39.11v.312c.64 0 .733.062.733.546V-.75c0 .438-.11.438-.79.438V0c.31-.016.86-.03 1.09-.03.36 0 .7.014 1.04.03v-.313c-.68 0-.71-.046-.71-.437zm.03-1.735c0-.32-.234-.54-.515-.54-.31 0-.53.26-.53.53 0 .26.22.53.53.53.29 0 .52-.22.52-.53z"/>
    </symbol>
    <symbol overflow="visible" id="f">
      <path d="M1.094-3.422V-.75c0 .438-.11.438-.782.438V0c.36-.016.86-.03 1.14-.03.25 0 .767.014 1.11.03v-.313c-.67 0-.78 0-.78-.437v-1.844c0-1.03.718-1.594 1.343-1.594.64 0 .75.532.75 1.11V-.75c0 .438-.11.438-.78.438V0c.342-.016.858-.03 1.124-.03.25 0 .78.014 1.1.03v-.313c-.52 0-.77 0-.77-.296v-1.9c0-.86 0-1.15-.31-1.51-.14-.17-.47-.37-1.05-.37-.74 0-1.2.43-1.49 1.05V-4.4l-1.4.11v.31c.7 0 .78.06.78.56z"/>
    </symbol>
    <symbol overflow="visible" id="g">
      <path d="M3.297 2.39c0-.03 0-.046-.172-.218C1.89.922 1.562-.968 1.562-2.5c0-1.734.375-3.47 1.61-4.703.125-.125.125-.14.125-.172 0-.078-.03-.11-.094-.11-.11 0-1 .688-1.594 1.954-.5 1.09-.63 2.2-.63 3.03 0 .78.11 1.98.65 3.12C2.24 1.84 3.09 2.5 3.2 2.5c.063 0 .094-.03.094-.11z"/>
    </symbol>
    <symbol overflow="visible" id="i">
      <path d="M2.875-2.5c0-.766-.11-1.97-.656-3.11C1.62-6.827.76-7.483.67-7.483c-.063 0-.11.046-.11.11 0 .03 0 .046.188.233.984.984 1.547 2.562 1.547 4.64C2.295-.78 1.935.97.7 2.22c-.14.124-.14.14-.14.17 0 .063.047.11.11.11.094 0 1-.688 1.578-1.953.516-1.094.625-2.203.625-3.047z"/>
    </symbol>
    <symbol overflow="visible" id="h">
      <path d="M3.328-3.016c.063-.25.297-1.17.985-1.17.046 0 .296 0 .5.124-.282.062-.47.296-.47.546 0 .157.11.344.376.344.21 0 .53-.172.53-.578 0-.516-.58-.656-.93-.656-.58 0-.92.53-1.05.75-.25-.656-.78-.75-1.08-.75-1.03 0-1.61 1.28-1.61 1.53 0 .11.11.11.12.11.07 0 .1-.03.12-.11.34-1.062 1-1.312 1.34-1.312.184 0 .53.094.53.672 0 .313-.17.97-.53 2.375C2-.53 1.64-.11 1.202-.11c-.06 0-.28 0-.5-.13.25-.07.47-.27.47-.55 0-.27-.22-.35-.36-.35-.313 0-.547.25-.547.58 0 .45.48.65.92.65.67 0 1.03-.71 1.045-.75.127.36.486.75 1.08.75 1.035 0 1.6-1.28 1.6-1.53 0-.11-.08-.11-.11-.11-.095 0-.11.05-.14.11C4.34-.36 3.67-.13 3.356-.13c-.39 0-.547-.31-.547-.656 0-.216.05-.435.157-.873z"/>
    </symbol>
    <symbol overflow="visible" id="k">
      <path d="M.594-1.11c0-.046-.016-.046-.063-.046-.1.11-.26.11-.34.11v.062c.05 0 .16 0 .25-.047v.89c0 .06 0 .07-.17.07H.2V0h.625v-.063h-.06C.593-.063.593-.077.593-.14z"/>
    </symbol>
    <symbol overflow="visible" id="l">
      <path d="M.89-.313H.83C.815-.28.8-.173.783-.156h-.5c.19-.157.25-.203.36-.28.126-.11.25-.22.25-.392 0-.203-.187-.328-.42-.328-.22 0-.36.14-.36.312 0 .078.077.094.093.094C.253-.75.3-.78.3-.844c0-.03-.016-.094-.11-.094.063-.125.172-.156.266-.156.172 0 .266.125.266.266 0 .156-.11.28-.173.344l-.43.42C.11-.044.11-.044.11 0h.718z"/>
    </symbol>
    <symbol overflow="visible" id="n">
      <path d="M.484-.578c.125 0 .235.094.235.28 0 .22-.13.282-.24.282-.06 0-.22-.03-.3-.125.08 0 .09-.07.09-.1 0-.07-.03-.11-.1-.11-.05 0-.09.03-.09.11 0 .15.18.26.39.26C.73.02.9-.13.9-.3.9-.44.776-.58.59-.615c.19-.077.25-.202.25-.31 0-.14-.154-.235-.36-.235-.185 0-.326.094-.326.235 0 .045.032.092.078.092.064 0 .095-.048.095-.095S.295-1.02.23-1.02c.064-.078.19-.093.25-.093.08 0 .19.032.19.188 0 .078-.016.156-.063.203-.064.08-.11.08-.205.08-.03 0-.047 0-.047.016 0 0-.016 0-.016.016 0 .032.01.032.04.032z"/>
    </symbol>
    <symbol overflow="visible" id="o">
      <path d="M.25-.5c0-.016 0-.016-.016-.016-.047.063-.11.063-.156.063v.016c.03 0 .078 0 .11-.016v.39c0 .032 0 .032-.063.032H.078V0H.36v-.03H.343C.25-.03.25-.03.25-.064z"/>
    </symbol>
    <symbol overflow="visible" id="p">
      <path d="M.203-.25c.063 0 .11.03.11.11 0 .11-.063.124-.094.124-.04 0-.1 0-.15-.046.04 0 .06-.016.06-.047C.13-.14.1-.14.07-.14c-.015 0-.047 0-.047.03 0 .08.094.13.19.13.11 0 .19-.08.19-.16 0-.05-.065-.11-.14-.14.077-.02.11-.08.11-.12 0-.062-.08-.11-.16-.11s-.16.048-.16.11c0 .016.018.03.05.03.03 0 .03-.014.03-.03 0-.03 0-.046-.03-.046C.14-.482.183-.5.22-.5c.03 0 .077.03.077.094 0 .03 0 .062-.03.094-.033.015-.048.03-.08.03h-.03S.14-.28.14-.265s.016.016.032.016z"/>
    </symbol>
  </defs>
  <use xlink:href="#a" x="38.213" y="23.703" fill="#F00"/>
  <use xlink:href="#b" x="48.729" y="26.166" fill="#F00"/>
  <use xlink:href="#c" x="48.729" y="34.164" fill="#F00"/>
  <g fill="#F00">
    <use xlink:href="#d" x="55.812" y="31.175"/>
    <use xlink:href="#e" x="59.741" y="31.175"/>
    <use xlink:href="#f" x="62.509" y="31.175"/>
    <use xlink:href="#g" x="68.044" y="31.175"/>
  </g>
  <use xlink:href="#h" x="71.919" y="31.175" fill="#F00"/>
  <use xlink:href="#b" x="77.613" y="32.67" fill="#F00"/>
  <use xlink:href="#i" x="83.036" y="31.175" fill="#F00"/>
  <path d="M48.387 51.34c0-7.828-6.344-14.172-14.172-14.172S20.043 43.512 20.043 51.34s6.344 14.176 14.172 14.176 14.172-6.348 14.172-14.176z" fill="none" stroke-width=".399" stroke="#000" stroke-miterlimit="10"/>
  <use xlink:href="#j" x="32.229" y="49.909" fill="#00F"/>
  <path d="M32.23 51.34h3.97" fill="none" stroke-width=".398" stroke="#00F" stroke-miterlimit="10"/>
  <use xlink:href="#c" x="32.229" y="57.267" fill="#00F"/>
  <path d="M76.734 51.34c0-7.828-6.343-14.172-14.17-14.172-7.83 0-14.177 6.344-14.177 14.172s6.347 14.176 14.175 14.176c7.83 0 14.172-6.348 14.172-14.176z" fill="none" stroke-width=".399" stroke="#000" stroke-miterlimit="10"/>
  <use xlink:href="#c" x="60.576" y="49.909" fill="#00F"/>
  <path d="M60.574 51.34h3.973" fill="none" stroke-width=".398" stroke="#00F" stroke-miterlimit="10"/>
  <use xlink:href="#c" x="60.576" y="57.267" fill="#00F"/>
  <path d="M51.934 61.97c0-1.954-1.59-3.544-3.547-3.544s-3.543 1.59-3.543 3.543 1.586 3.54 3.543 3.54 3.547-1.59 3.547-3.55z" fill="none" stroke-width=".399" stroke="#000" stroke-miterlimit="10"/>
  <use xlink:href="#k" x="47.892" y="61.613" fill="#00F"/>
  <path d="M47.89 61.973h.993" fill="none" stroke-width=".1" stroke="#00F" stroke-miterlimit="10"/>
  <use xlink:href="#l" x="47.892" y="63.453" fill="#00F"/>
  <path d="M105.082 51.34c0-7.828-6.344-14.172-14.172-14.172S76.734 43.512 76.734 51.34s6.348 14.176 14.176 14.176 14.172-6.348 14.172-14.176z" fill="none" stroke-width=".399" stroke="#000" stroke-miterlimit="10"/>
  <use xlink:href="#m" x="88.922" y="49.909" fill="#00F"/>
  <path d="M88.922 51.34h3.973" fill="none" stroke-width=".398" stroke="#00F" stroke-miterlimit="10"/>
  <use xlink:href="#c" x="88.922" y="57.267" fill="#00F"/>
  <path d="M80.277 61.97c0-1.954-1.586-3.544-3.543-3.544s-3.543 1.59-3.543 3.543 1.59 3.54 3.55 3.54 3.55-1.59 3.55-3.55z" fill="none" stroke-width=".399" stroke="#000" stroke-miterlimit="10"/>
  <use xlink:href="#n" x="76.238" y="61.613" fill="#00F"/>
  <path d="M76.238 61.973h.992" fill="none" stroke-width=".1" stroke="#00F" stroke-miterlimit="10"/>
  <use xlink:href="#l" x="76.238" y="63.453" fill="#00F"/>
  <path d="M45.238 63.94c0-.87-.703-1.577-1.574-1.577-.87 0-1.574.707-1.574 1.578 0 .87.703 1.58 1.574 1.58.87 0 1.574-.7 1.574-1.57z" fill="none" stroke-width=".399" stroke="#000" stroke-miterlimit="10"/>
  <use xlink:href="#o" x="43.443" y="63.78" fill="#00F"/>
  <path d="M43.44 63.938h.443" fill="none" stroke-width=".044" stroke="#00F" stroke-miterlimit="10"/>
  <use xlink:href="#p" x="43.443" y="64.598" fill="#00F"/>
</svg>
