<svg height="56.722" viewBox="-52.157 -48.8262 85.439 42.5418" width="113.919" xmlns="http://www.w3.org/2000/svg" xmlns:xlink="http://www.w3.org/1999/xlink">
  <defs>
    <path d="M3.328-3.01c.06-.258.288-1.174.986-1.174.05 0 .29 0 .498.13-.28.05-.478.298-.478.537 0 .16.11.35.378.35.22 0 .538-.18.538-.58 0-.517-.587-.656-.926-.656-.578 0-.927.528-1.046.757-.25-.658-.787-.757-1.076-.757C1.166-4.403.598-3.118.598-2.87c0 .1.1.1.12.1.08 0 .11-.02.13-.11.338-1.055.995-1.304 1.334-1.304.19 0 .538.09.538.667 0 .31-.17.977-.538 2.37-.16.62-.508 1.037-.947 1.037-.06 0-.29 0-.498-.13.25-.05.468-.258.468-.537 0-.27-.22-.35-.368-.35-.3 0-.548.26-.548.58 0 .457.49.657.93.657.66 0 1.01-.698 1.04-.758.12.37.48.758 1.07.758 1.03 0 1.593-1.286 1.593-1.535 0-.1-.09-.1-.12-.1-.09 0-.11.04-.13.11C4.36-.35 3.683-.11 3.363-.11c-.387 0-.547-.318-.547-.657 0-.22.06-.438.17-.877L3.32-3.01z" id="h"/>
    <path d="M4.194 5.32L.658 9.694c-.08.1-.09.12-.09.16 0 .11.09.11.27.11h8.258l.857-2.482h-.25c-.248.747-.916 1.355-1.763 1.644-.16.05-.847.29-2.31.29H1.394L4.852 5.14c.07-.09.09-.12.09-.16s-.01-.048-.07-.138L1.634.4H5.58c1.135 0 3.426.068 4.124 1.93h.25L9.094 0H.837C.57 0 .56.01.56.32l3.636 5z" id="a"/>
    <path d="M3.298 2.39c0-.03 0-.05-.17-.218C1.883.917 1.564-.966 1.564-2.49c0-1.734.38-3.468 1.604-4.713.13-.12.13-.14.13-.17 0-.07-.04-.1-.1-.1-.1 0-.996.678-1.584 1.944-.508 1.1-.628 2.21-.628 3.04 0 .78.11 1.99.658 3.11.598 1.23 1.454 1.88 1.554 1.88.06 0 .1-.03.1-.1z" id="g"/>
    <path d="M2.88-2.49c0-.778-.11-1.983-.658-3.11C1.624-6.823.767-7.47.667-7.47c-.06 0-.1.04-.1.1 0 .03 0 .05.19.23.977.985 1.544 2.57 1.544 4.65C2.3-.786 1.94.967.7 2.223c-.13.12-.13.14-.13.17 0 .06.04.1.1.1.1 0 .997-.68 1.585-1.944.508-1.1.627-2.21.627-3.04z" id="i"/>
    <path d="M1.763-4.403l-1.394.11v.308c.64 0 .73.06.73.548v2.68C1.1-.31.99-.31.32-.31V0c.318-.01.856-.03 1.095-.03.35 0 .696.02 1.035.03v-.31c-.658 0-.698-.05-.698-.437v-3.656zm.04-1.734c0-.32-.25-.528-.528-.528-.31 0-.528.27-.528.528 0 .27.22.528.528.528.28 0 .528-.2.528-.52z" id="e"/>
    <path d="M1.096-3.427v2.67c0 .448-.11.448-.777.448V0c.34-.01.85-.03 1.12-.03.26 0 .77.02 1.11.03v-.31c-.67 0-.78 0-.78-.447V-2.59c0-1.036.7-1.594 1.34-1.594.63 0 .733.538.733 1.106v2.32c0 .45-.11.45-.777.45V0c.35-.01.86-.03 1.13-.03.26 0 .776.02 1.115.03v-.31c-.52 0-.767 0-.777-.298V-2.51c0-.857 0-1.166-.31-1.525-.14-.17-.47-.368-1.048-.368-.73 0-1.198.428-1.476 1.046v-1.046l-1.4.11v.308c.695 0 .775.07.775.558z" id="f"/>
    <path d="M2.072-1.933c.22.04 1.036.2 1.036.917 0 .508-.348.906-1.125.906C1.146-.11.787-.677.598-1.524c-.03-.13-.04-.17-.14-.17-.13 0-.13.07-.13.25V-.13c0 .17 0 .24.11.24.05 0 .06-.01.25-.2.02-.02.02-.04.2-.23.437.42.885.43 1.095.43 1.145 0 1.604-.668 1.604-1.385 0-.528-.3-.827-.42-.947C2.84-2.54 2.45-2.62 2.032-2.7 1.474-2.81.807-2.94.807-3.517c0-.35.26-.757 1.116-.757 1.096 0 1.145.897 1.165 1.206.01.09.1.09.12.09.13 0 .13-.05.13-.24v-1.006c0-.17 0-.24-.11-.24-.05 0-.07 0-.2.12-.03.04-.13.13-.17.16-.377-.28-.786-.28-.935-.28-1.216 0-1.593.67-1.593 1.227 0 .35.158.628.427.847.32.258.598.318 1.315.457z" id="d"/>
    <path d="M.85-.44c-.027.09-.07.266-.07.287 0 .153.128.223.24.223.126 0 .237-.09.272-.154s.09-.286.126-.432c.035-.133.11-.453.153-.628.04-.153.09-.307.12-.467.08-.29.09-.35.3-.63.2-.28.53-.64 1.05-.64.41 0 .41.35.41.48 0 .42-.3 1.19-.41 1.48-.07.19-.1.26-.1.37 0 .37.31.6.666.6.695.003 1-.96 1-1.067 0-.09-.09-.09-.11-.09-.1 0-.105.04-.133.12-.16.56-.46.843-.74.843-.15 0-.176-.098-.176-.245 0-.16.036-.25.16-.563.084-.217.37-.956.37-1.346 0-.674-.54-.792-.906-.792-.58 0-.97.355-1.18.634-.05-.48-.46-.634-.745-.634-.3 0-.46.22-.55.38-.153.26-.25.655-.25.69 0 .09.1.09.12.09.098 0 .105-.02.154-.21.1-.41.233-.753.51-.753.18 0 .23.153.23.342 0 .13-.068.39-.117.573s-.12.477-.156.63l-.23.9z" id="b"/>
    <path d="M3.6-2.225c0-.767-.092-1.318-.413-1.806-.216-.33-.65-.6-1.206-.6-1.61 0-1.61 1.9-1.61 2.4S.37.14 1.98.14 3.6-1.724 3.6-2.226zM1.98-.055c-.32 0-.746-.19-.885-.76-.098-.412-.098-.984-.098-1.5 0-.51 0-1.04.105-1.423.146-.55.593-.697.88-.697.375 0 .738.23.863.634.112.37.12.87.12 1.48 0 .51 0 1.03-.092 1.47-.14.63-.613.79-.892.79z" id="j"/>
    <path d="M2.336-4.435c0-.19-.014-.196-.21-.196-.445.44-1.08.44-1.366.44v.25c.168 0 .628 0 1.01-.2v3.56c0 .23 0 .32-.696.32H.81V0c.124-.007.982-.028 1.24-.028.217 0 1.095.02 1.25.028v-.25h-.266c-.698 0-.698-.092-.698-.322v-3.863z" id="c"/>
    <path d="M3.522-1.27h-.237c-.02.154-.09.566-.182.635-.055.042-.592.042-.69.042H1.13c.732-.648.976-.844 1.395-1.17.516-.413.997-.845.997-1.508 0-.85-.74-1.36-1.632-1.36-.865 0-1.45.6-1.45 1.24 0 .35.3.39.37.39.166 0 .37-.12.37-.37 0-.13-.05-.37-.413-.37.216-.5.69-.65 1.018-.65.698 0 1.06.54 1.06 1.11 0 .6-.432 1.08-.655 1.33L.51-.28C.44-.21.44-.19.44 0h2.873l.21-1.27z" id="k"/>
    <path d="M1.904-2.33c.544 0 .934.377.934 1.124 0 .864-.502 1.122-.906 1.122-.28 0-.893-.076-1.186-.488.328-.014.405-.244.405-.39 0-.224-.16-.384-.38-.384-.19 0-.39.12-.39.405 0 .65.73 1.08 1.57 1.08.97 0 1.64-.65 1.64-1.35 0-.55-.44-1.09-1.21-1.25.74-.27 1-.79 1-1.21 0-.55-.63-.97-1.4-.97S.6-4.26.6-3.7c0 .238.152.37.36.37.217 0 .356-.16.356-.355 0-.202-.138-.35-.355-.363.25-.307.73-.383.99-.383.32 0 .75.15.75.76 0 .29-.1.61-.28.83-.23.26-.42.28-.77.3-.17.01-.19.01-.22.02-.01 0-.07.01-.07.09 0 .1.06.1.18.1h.38z" id="l"/>
  </defs>
  <g fill="red" transform="translate(3.998 -34.339)">
    <use x="-37.785" xlink:href="#a" y="-13.958"/>
    <use x="-27.269" xlink:href="#b" y="-11.495"/>
    <use x="-27.269" xlink:href="#c" y="-3.497"/>
    <use x="-20.186" xlink:href="#d" y="-6.486"/>
    <use x="-16.27" xlink:href="#e" y="-6.486"/>
    <use x="-13.513" xlink:href="#f" y="-6.486"/>
    <use x="-7.954" xlink:href="#g" y="-6.486"/>
    <use x="-4.094" xlink:href="#h" y="-6.486"/>
    <use x="1.579" xlink:href="#b" y="-4.992"/>
    <use x="7.002" xlink:href="#i" y="-6.486"/>
  </g>
  <path d="M-23.613-20.66c0-7.828-6.344-14.172-14.172-14.172s-14.172 6.344-14.172 14.172 6.344 14.176 14.172 14.176 14.172-6.348 14.172-14.176zm-14.172 0" fill="none" stroke="#000" stroke-miterlimit="10.037" stroke-width=".4"/>
  <g fill="#00f" transform="translate(-3.181 -11.683)">
    <use x="-36.59" xlink:href="#j" y="-10.409"/>
    <use x="-36.59" xlink:href="#c" y="-3.051"/>
  </g>
  <path fill="#00f" d="M-39.77-20.86h3.97v.4h-3.97z"/>
  <path d="M4.734-20.66c0-7.828-6.343-14.172-14.172-14.172-7.828 0-14.175 6.344-14.175 14.172S-17.266-6.484-9.438-6.484c7.83 0 14.172-6.348 14.172-14.176zm-14.172 0" fill="none" stroke="#000" stroke-miterlimit="10.037" stroke-width=".4"/>
  <g fill="#00f" transform="translate(25.166 -11.683)">
    <use x="-36.59" xlink:href="#c" y="-10.409"/>
    <use x="-36.59" xlink:href="#c" y="-3.051"/>
  </g>
  <path fill="#00f" d="M-11.424-20.86h3.97v.4h-3.97z"/>
  <path d="M-20.066-10.03c0-1.958-1.59-3.544-3.547-3.544s-3.543 1.586-3.543 3.543 1.586 3.54 3.543 3.54 3.547-1.59 3.547-3.55zm-3.547 0" fill="none" stroke="#000" stroke-miterlimit="10.037" stroke-width=".4"/>
  <g fill="#00f" transform="matrix(.25 0 0 .25 -14.961 -7.785)">
    <use x="-36.59" xlink:href="#c" y="-10.409"/>
    <use x="-36.59" xlink:href="#k" y="-3.051"/>
  </g>
  <path fill="#00f" d="M-24.108-10.08h.993v.1h-.993z"/>
  <path d="M33.082-20.66c0-7.828-6.344-14.172-14.172-14.172S4.734-28.488 4.734-20.66 11.082-6.484 18.91-6.484s14.172-6.348 14.172-14.176zm-14.172 0" fill="none" stroke="#000" stroke-miterlimit="10.037" stroke-width=".4"/>
  <g fill="#00f" transform="translate(53.513 -11.683)">
    <use x="-36.59" xlink:href="#k" y="-10.409"/>
    <use x="-36.59" xlink:href="#c" y="-3.051"/>
  </g>
  <path fill="#00f" d="M16.922-20.86h3.972v.4h-3.97z"/>
  <path d="M8.277-10.03c0-1.958-1.586-3.544-3.543-3.544S1.19-11.988 1.19-10.03s1.587 3.546 3.544 3.546 3.543-1.59 3.543-3.547zm-3.543 0" fill="none" stroke="#000" stroke-miterlimit="10.037" stroke-width=".4"/>
  <g fill="#00f" transform="matrix(.25 0 0 .25 13.386 -7.785)">
    <use x="-36.59" xlink:href="#l" y="-10.409"/>
    <use x="-36.59" xlink:href="#k" y="-3.051"/>
  </g>
  <path fill="#00f" d="M4.24-10.08h.99v.1h-.99z"/>
  <path d="M-26.762-8.063c0-.867-.703-1.574-1.574-1.574-.87 0-1.574.707-1.574 1.575 0 .87.703 1.578 1.574 1.578.87 0 1.574-.707 1.574-1.58zm-1.574 0" fill="none" stroke="#000" stroke-miterlimit="10.037" stroke-width=".4"/>
  <g fill="#00f" transform="matrix(.111 0 0 .111 -24.492 -7.064)">
    <use x="-36.59" xlink:href="#c" y="-10.409"/>
    <use x="-36.59" xlink:href="#l" y="-3.051"/>
  </g>
  <path fill="#00f" d="M-28.557-8.083h.44v.044h-.44z"/>
</svg>
